<?xml version="1.0" encoding="utf-8"?>
<!-- Generator: Adobe Illustrator 20.1.0, SVG Export Plug-In . SVG Version: 6.00 Build 0)  -->
<svg version="1.1" id="Layer_1" xmlns="https://www.w3.org/2000/svg" xmlns:xlink="https://www.w3.org/1999/xlink" x="0px" y="0px"
	 viewBox="0 0 480 330" style="enable-background:new 0 0 480 330;" xml:space="preserve">
<style type="text/css">
	.st0{font-family:'NixieOne-Regular';}
	.st1{font-size:60.6971px;}
	.st2{font-size:144.4171px;}
	.st3{fill:none;}
	.st4{fill:none;stroke:#000000;stroke-width:0.8;stroke-miterlimit:10;}
	.st5{fill:none;stroke:#000000;stroke-width:1.2756;stroke-linecap:round;stroke-miterlimit:10;}
	.st6{fill:none;stroke:#000000;stroke-width:0.8;stroke-linecap:round;stroke-miterlimit:10;}
</style>
<text transform="matrix(1 0 0 1 5.4985 291.0605)" class="st0 st1">Page not Found</text>
<text transform="matrix(1 0 0 1 70.5107 205.9482)" class="st0 st2">4 0</text>
<g id="_x34__explode">
	<path class="st3" d="M340.4,177.1h2.7l-2.6-4.5c-0.5,0.8-1.1,1.6-1.7,2.4C338.1,176.3,338.7,177.1,340.4,177.1z"/>
	<path class="st3" d="M333.6,172.3l1.1,1.3c0.4-0.6,0.7-1.1,1.1-1.7L333.6,172.3z"/>
	<polygon class="st3" points="341.9,181.9 342.2,181.4 341.5,181.4 	"/>
	<polygon points="345.5,188.1 344.1,188.1 344.8,189.3 	"/>
	<polygon points="345.8,182.3 344.2,185.4 347.7,185.4 345.9,182.3 	"/>
	<polygon points="344.9,193.3 349.3,192.1 345.5,192.1 344.8,193.3 	"/>
	<path d="M408.4,177.1h-11.6c-1.4,0-2.2-0.7-2.2-2.2v-41.3c0-1.4-0.7-2.2-2.2-2.2c-1.4,0-2.2,0.7-2.2,2.2v41.3
		c0,1.4-0.7,2.2-2.2,2.2h-39.9l-4.4,1.2l1.8,3.1H388c1.4,0,2.2,0.7,2.2,2.2v21.7c0,1.4,0.7,2.2,2.2,2.2c1.4,0,2.2-0.7,2.2-2.2v-21.7
		c0-1.4,0.7-2.2,2.2-2.2h11.6c1.4,0,2.2-0.7,2.2-2.2C410.6,177.8,409.9,177.1,408.4,177.1z"/>
	<path d="M343.8,178.3h0.1H343.8z"/>
	<path d="M332.9,181.4c0.2,0,0.3,0,0.5,0h0.8l0.1-0.4L332.9,181.4z"/>
	<path d="M336.9,168.3c0.4-0.5,0.7-1,1.1-1.5l-1.8,0.3L336.9,168.3z"/>
	<path d="M316.6,165.9l-0.7-0.9c-0.9,1.4-1.9,2.9-2.9,4.4c-0.3,0.6-0.4,1.2-0.4,1.6c0,0.3,0.1,0.6,0.3,0.7c0.2,0.6,0.7,0.9,1.2,1
		l1.4-0.4L316.6,165.9z"/>
	<polygon points="320.1,188.6 320.2,189 327.2,186.9 325,185.5 	"/>
	<path d="M326.9,168h-0.1c-0.4,0.5-0.7,1.1-1.1,1.7l0.7,0.9L326.9,168z"/>
	<polygon points="349.8,189.4 351.5,191.4 352.2,191.4 353.8,188.3 	"/>
	<path d="M332.7,163.7c-0.1-5-0.4-9.3-0.8-13.1c-0.5-4.8-1.6-10.2-3.1-16.4c-2.9-12.4-9.2-24.4-19.4-38.3c-0.9-1.2-1.9-1.3-3-0.5
		s-1.3,1.9-0.5,3c1.6,2.2,3.2,4.3,4.6,6.5c9,13.4,14.5,27,16.6,40.7c0.4,3,0.9,9,1.4,17.9l3.1,1.3L332.7,163.7z"/>
	<path d="M318.2,186c-0.1,0.1-0.1,0.2-0.2,0.3h0.1L318.2,186z"/>
	<path d="M327.6,174.4l-1.7-2.9c-0.7,1.1-1.4,2.1-2.2,3.3v0.2L327.6,174.4z"/>
	<path class="st3" d="M343.3,196.1l-0.6-1l-1.1,0.3C341.8,195.8,342.4,196,343.3,196.1z"/>
	<path d="M342.9,192.8l-0.7-1.2l-2.6,0.4l1.7,3C341.9,194.3,342.4,193.5,342.9,192.8z"/>
	<path d="M347.8,197.3l-0.7-1.2h-2.7h-0.1l1.1,1.9L347.8,197.3L347.8,197.3z"/>
	<path d="M338.6,200.5l-1.2,0.4l2.3,2.7l1.6-0.5l-1.1-1.9C339.4,201.2,338.8,201,338.6,200.5z"/>
	<polygon class="st3" points="324.7,176.1 324.8,176.5 324.9,176 	"/>
	<polygon points="323.1,175.9 321.5,174.2 319.9,175 319.8,175.5 320.6,177.2 	"/>
	<polygon points="328.8,170.9 328.4,173.1 330,172.3 	"/>
	<polygon points="310.6,186.4 310.3,187.9 312.4,187.3 311.8,185.8 	"/>
	<polygon points="315.8,178.5 315.4,180.8 316.6,180.2 	"/>
	<polygon points="327.4,177.9 324.9,179.2 325.6,180.7 329,179.8 	"/>
	<polygon class="st3" points="333.8,194.2 333.9,194.3 333.9,194.2 	"/>
	<path class="st3" d="M338.9,194.7c0,0.1-0.1,0.1-0.1,0.2c-0.3,0.6-0.4,1.1-0.2,1.5l1.1-0.3L338.9,194.7z"/>
	<path d="M334.4,194.9L334.4,194.9L334.4,194.9z"/>
	<polygon points="328.7,188.6 327.2,190.8 328.8,190.9 	"/>
	<polygon points="335.9,186.5 337.4,188.2 338.2,187.6 337,185.5 336.6,185.6 	"/>
	<path d="M339.5,197.4c0-0.2,0.1-0.5,0.3-0.8c0-0.1,0.1-0.1,0.1-0.2l-0.2-0.4l-0.8,0.6L339.5,197.4z"/>
	<polygon points="337.7,194.5 336.9,194.6 337,195.3 337,195.4 	"/>
	<polygon points="341.3,186.3 341.1,186 340.8,186.3 	"/>
	<polygon points="334.2,188.8 333.3,189.8 333.3,190 334.5,191.4 334.5,191.4 	"/>
	<polygon points="333.2,196.4 332.6,195.8 332.3,197.5 333.2,196.5 	"/>
	<polygon points="334.7,197.6 334.8,197.6 334.8,197.5 	"/>
	<path d="M330.3,202.7l-1.2,0.9v0.1l0.8,0.9l1.2-0.4c-0.1-0.2-0.1-0.4-0.1-0.7L330.3,202.7z"/>
	<polygon points="333.9,195.4 333.5,195.5 333.4,195.6 334,196.2 	"/>
	<polygon points="331.7,191.6 331.4,191.6 331.3,192.1 331.8,192.1 	"/>
	<polygon points="338.6,193.7 338.8,193.4 338.7,193.1 337.6,193.3 337.7,193.8 	"/>
</g>
<g id="Shower">
	<line class="st4" x1="318.1" y1="208.3" x2="464.6" y2="11.6"/>
	<path class="st5" d="M321.2,211.1c0.9-1.3-0.6-2.7-3.2-3.2c-2.7-0.4-5.5,0.3-6.3,1.6c-0.9,1.3,0.6,2.7,3.2,3.2
		C317.5,213.1,320.4,212.4,321.2,211.1z"/>
	<path d="M320.9,211.1c0.9-1.3-0.6-2.7-3.2-3.2c-2.7-0.4-5.5,0.3-6.3,1.6c-0.9,1.3,0.6,2.7,3.2,3.2
		C317.2,213.1,320,212.4,320.9,211.1z"/>
	<line class="st6" x1="338.7" y1="180.4" x2="286.3" y2="218.5"/>
	<line class="st6" x1="417.2" y1="75.4" x2="402.2" y2="145.2"/>
	<line class="st6" x1="412" y1="99.7" x2="417.7" y2="130.3"/>
	<path d="M291.1,219.3c0.9-1.3-0.6-2.7-3.2-3.2c-2.7-0.4-5.5,0.3-6.3,1.6c-0.9,1.3,0.6,2.7,3.2,3.2
		C287.4,221.3,290.2,220.6,291.1,219.3z"/>
	<line class="st6" x1="441.7" y1="42.4" x2="384.6" y2="80.1"/>
</g>
</svg>
