<?xml version="1.0" encoding="utf-8"?>
<!-- Generator: Adobe Illustrator 20.1.0, SVG Export Plug-In . SVG Version: 6.00 Build 0)  -->
<svg version="1.1" id="Layer_1" xmlns="https://www.w3.org/2000/svg" xmlns:xlink="https://www.w3.org/1999/xlink" x="0px" y="0px"
	 viewBox="0 0 480 330" style="enable-background:new 0 0 480 330;" xml:space="preserve">
<style type="text/css">
	.st0{font-family:'NixieOne-Regular';}
	.st1{font-size:60.6971px;}
	.st2{font-size:144.4171px;}
	.st3{fill:none;stroke:#000000;stroke-width:0.8;stroke-miterlimit:10;}
	.st4{fill:none;stroke:#000000;stroke-width:0.8;stroke-linecap:round;stroke-miterlimit:10;}
	.st5{fill:none;stroke:#000000;stroke-width:1.2756;stroke-linecap:round;stroke-miterlimit:10;}
	.st6{fill:none;}
</style>
<text transform="matrix(1 0 0 1 45.0444 291.0605)" class="st0 st1">Server Error</text>
<text transform="matrix(1 0 0 1 71.5107 205.9482)" class="st0 st2">5 0</text>
<g id="shower">
	<line class="st3" x1="318.1" y1="208.3" x2="464.6" y2="11.6"/>
	<path d="M320.9,211.1c0.9-1.3-0.6-2.7-3.2-3.2c-2.7-0.4-5.5,0.3-6.3,1.6c-0.9,1.3,0.6,2.7,3.2,3.2
		C317.2,213.1,320,212.4,320.9,211.1z"/>
	<line class="st4" x1="360.3" y1="151.8" x2="293.2" y2="185.4"/>
	<line class="st4" x1="417.2" y1="75.3" x2="377" y2="224.9"/>
	<line class="st4" x1="407.3" y1="111.9" x2="394.8" y2="141.8"/>
	<line class="st4" x1="432" y1="55.3" x2="390.1" y2="88.8"/>
	<line class="st4" x1="387.6" y1="82" x2="401.9" y2="79.3"/>
	<path d="M380.8,227.1c0.9-1.3-0.6-2.7-3.2-3.2c-2.7-0.4-5.5,0.3-6.3,1.6c-0.9,1.3,0.6,2.7,3.2,3.2
		C377.1,229.1,379.9,228.4,380.8,227.1z"/>
	<path class="st5" d="M321.2,211.1c0.9-1.3-0.6-2.7-3.2-3.2c-2.7-0.4-5.5,0.3-6.3,1.6c-0.9,1.3,0.6,2.7,3.2,3.2
		C317.5,213.1,320.4,212.4,321.2,211.1z"/>
</g>
<g id="_x30__explode">
	<path d="M386.1,138.8c0.1,0.3,0.1,0.5,0.2,0.8l3.8-3.1c-1-3.6-2.4-6.8-4.2-9.7l-3.8,2.3C383.8,132,385.2,135.2,386.1,138.8z"/>
	<path d="M331.9,148.9c-1.9-15-0.3-27,5.1-36c5.4-9.1,12.9-14.3,22.5-15.6c4.9-0.6,9.4-0.1,13.7,1.5l2.2-3.9
		c-5.1-2-10.6-2.7-16.5-1.9c-10.9,1.4-19.3,7.2-25.5,17.1c-6,9.9-7.9,23.2-5.8,39.3c0.2,1.6,0.5,3.2,0.7,4.7l4-2.5
		C332.1,150.8,332,149.8,331.9,148.9z"/>
	<path d="M374.2,208.9c-9.6,1.5-18.2-1.4-25.9-8.6c-3.4-3.2-6.2-7.2-8.6-11.8l-2.3,4.9c2.3,4,5.1,7.5,8.2,10.4
		c8.7,7.9,18.4,11,29.2,9.4c0.4-0.1,0.8-0.1,1.3-0.2l1.2-4.7C376.4,208.5,375.3,208.8,374.2,208.9z"/>
	<path d="M408.3,125.9l-3,4.3c2.8,6.9,4.2,15.3,4.2,25.2c0,15.2-3.3,26.9-9.8,35.2c-4.1,5.2-8.9,8.8-14.2,10.8l-0.8,4.8
		c7-1.9,13.1-6.1,18.3-12.6c7.4-9.1,11-22,11-38.3C413.9,143.8,412,133.9,408.3,125.9z"/>
	<path class="st6" d="M381.6,107.5l-0.1,0.1c0.1,0,0.1,0.1,0.2,0.1L381.6,107.5z"/>
	<polygon points="376.3,123.7 377.9,123.2 377.8,123.1 376.3,123.2 	"/>
	<polygon points="384.6,120.6 385.2,122 386.1,120.6 386,120.3 	"/>
	<polygon points="388.5,125.1 388.8,124.8 388.4,124.8 	"/>
	<path d="M385.8,106.5l0.3-0.4c-0.5-0.3-1-0.6-1.5-0.9l0.7,1.4L385.8,106.5z"/>
	<polygon points="378.5,110.2 378.9,110.1 378.7,109.9 	"/>
	<polygon points="381.9,111.4 381.7,110.8 381.6,110.9 	"/>
	<path d="M389,118.7c-0.1-0.1-0.3-0.2-0.4-0.3l-0.3,0.4L389,118.7z"/>
	<polygon points="380.6,109.4 380.2,110 380.4,110.2 380.9,110.1 	"/>
	<path d="M385.6,113.3l-0.4-1.4l-1.4,0.9c0,0.1-0.1,0.1-0.1,0.2l1.2,0.7L385.6,113.3z"/>
	<polygon points="374.9,115.7 375.7,114.4 374.6,114.7 	"/>
	<polygon points="365.2,110.5 364.9,110.8 365.2,110.8 	"/>
	<path d="M381.6,102.9c-0.2-0.1-0.5-0.3-0.7-0.4l-0.5,0.6l0.4,1L381.6,102.9z"/>
	<path d="M380.1,135.5l-1,1.3c0.2,0.2,0.5,0.3,0.7,0.5l0.7-1l-0.2-0.4L380.1,135.5z"/>
	<polygon points="382.7,113.7 382.8,113.6 382.5,113.3 	"/>
	<path d="M384.4,124.3l-0.7,0.1l-0.3,0.4l0.4,0.9l0.9-1.2C384.5,124.4,384.5,124.3,384.4,124.3z"/>
	<polygon points="390.7,116.7 390.9,117.3 391.1,117.6 392.1,116.3 391.6,115.4 	"/>
	<path d="M376,110.6l-0.3,0.1l-0.8,1.2l0.2,0.7c0.4,0.2,0.7,0.5,1.1,0.7l1-1.3L376,110.6z"/>
	<polygon points="376.7,109.2 376.3,108.2 375.8,109 376.3,109.8 	"/>
	<polygon points="369,104.3 369.2,104 368.6,103.3 367.9,104.3 367.9,104.5 	"/>
	<path d="M375.7,115.1c0.2,0.1,0.3,0.2,0.5,0.3l-0.2-0.7L375.7,115.1z"/>
	<path d="M368.9,111.7l-0.3,0.1l-0.7,0.9c0.3,0.2,0.6,0.3,0.9,0.5l0.3-0.4L368.9,111.7z"/>
	<path class="st6" d="M387.6,211l-0.1,0.5c0.2,0,0.4-0.1,0.6-0.2L387.6,211z"/>
	<polygon class="st6" points="372.4,217.2 372.5,217.4 372.6,217.1 	"/>
	<path class="st6" d="M390,213.2L390,213.2L390,213.2z"/>
	<path class="st6" d="M373.5,219.1l0.5-0.3c-0.2,0-0.4,0-0.6,0L373.5,219.1z"/>
	<path class="st6" d="M386.8,216.1l1.2,1.7l0.6-2C388,215.9,387.4,216,386.8,216.1z"/>
	<polygon points="390.1,209.3 389.2,209.7 389.9,210.3 	"/>
	<polygon points="384.6,214.9 384.7,214.6 384.4,214.8 	"/>
	<polygon points="374.5,215.5 376.1,216 376.1,215 	"/>
	<path d="M387.4,217.8c0.3-0.2,0.6-0.4,0.8-0.6l-0.6-2.2l-0.6,0.8L387.4,217.8z"/>
	<path d="M370.2,218.2c0.5-0.3,0.9-0.6,1.3-1l-1.6-0.8L370.2,218.2z"/>
	<polygon points="391.3,209.5 391.9,210 392.2,208.2 391.6,208.5 	"/>
	<path d="M374.3,218.3c0.1,0,0.2,0,0.2,0v-0.1L374.3,218.3z"/>
	<path d="M376.7,220.2l-1.9,1.1v0.1c0.6-0.1,1.3-0.1,1.9-0.2l0.2-0.7L376.7,220.2z"/>
	<polygon points="389.6,215.7 390.4,215.2 390.4,215.1 389.9,214.6 	"/>
	<path d="M384.1,216.9l-1.8,2.5l0.1,0.3l0.7,0.4c0.5-0.4,1-0.7,1.4-1.1L384.1,216.9z"/>
	<path d="M381.9,215.5c0.2,0,0.4-0.1,0.6-0.1l-0.4-0.6L381.9,215.5z"/>
	<path d="M385.1,207.9l-0.7-0.5c0,0.7,0,1.3-0.1,2l0.9-0.5L385.1,207.9z"/>
	<path d="M391.6,212.3l0.1-0.7c-0.2,0.1-0.3,0.1-0.5,0.2l-0.2,0.8L391.6,212.3z"/>
	<path d="M374,215.7h-0.1l0.1,0.2V215.7z"/>
	<path d="M384.9,211.5l-0.4-0.9c-0.2,0-0.4-0.1-0.6-0.1l-0.8,1H384.9z"/>
	<polygon points="373,217.9 373.3,218.3 373.4,217.8 	"/>
	<polygon points="373.6,219.2 373,219.5 372.8,220.5 373.1,220.9 373.4,220.7 	"/>
	<polygon points="376.9,215.7 376.8,216.2 377,216.5 377.2,215.5 	"/>
	<polygon points="376.5,217.5 376.8,217.8 376.9,217.3 	"/>
	<polygon points="377.5,213.7 378,215.2 378.3,214.6 378,213.1 	"/>
	<polygon points="377.3,218.4 377.4,218.6 377.7,218.5 377.9,217.5 377.4,217.9 	"/>
	<line class="st6" x1="394.2" y1="156.9" x2="393.5" y2="159.4"/>
	<polygon class="st6" points="392.2,161 392.7,160.1 391.9,161.3 	"/>
	<path d="M392.8,160.3l0.6-0.9l-0.8,0.6C392.7,160,392.8,160.1,392.8,160.3z"/>
	<path d="M388.8,149.1c-0.1-0.2-0.3-0.3-0.4-0.5l-2.3,4.3c1.8,2.4,3.3,5.1,4.6,8l3-4C392.3,154.1,390.7,151.5,388.8,149.1z"/>
	<path d="M393.5,151.1l1.4-2.1c-0.1-0.1-0.1-0.3-0.2-0.4L393.5,151.1L393.5,151.1z"/>
	<path d="M398.8,151.8c0.1,0.2,0.2,0.3,0.3,0.5l1.5-1.8l0.8-2.8c-0.1-0.1-0.2-0.3-0.3-0.4L398.8,151.8z"/>
	<path d="M398.2,154.1c0,0.1,0,0.2,0,0.4l0.9-0.3l1.1-0.9l0.1-0.1L398.2,154.1z"/>
	<path d="M327.5,187.4l-0.1-0.4c-0.3-0.2-0.7-0.4-1-0.6l0.3,3.4L327.5,187.4z"/>
	<path d="M324,184.6c-0.6-2.1-1.2-4.2-1.7-6.5l-3.7,3c0.6,2.5,1.3,4.8,2,7l1.4-0.8L324,184.6z"/>
	<path d="M317.9,191.2c0.1,0.2,0.2,0.5,0.3,0.7l1.1-1.5L317.9,191.2z"/>
	<path d="M323.9,189.9l-0.9,2.3l0.1,1.8c0.5,0.3,1,0.6,1.5,0.9L323.9,189.9z"/>
	<polygon class="st6" points="334,197.3 332,200.3 335.8,199.8 	"/>
	<path d="M331.9,195.8l1.1-0.9c-0.1-0.3-0.2-0.6-0.2-0.8l-1.3,1.2L331.9,195.8z"/>
	<path d="M331.5,201.1l0.5-0.8l-0.8,0.1C331.3,200.6,331.4,200.8,331.5,201.1z"/>
	<path d="M330.1,197.3l0.5-0.7c-0.2-0.6-0.3-1.1-0.5-1.7l-1.1,0.9L330.1,197.3z"/>
	<path d="M334.6,194.6l1.6-0.7c0.1-0.7,0.2-1.4,0.2-2.1l-2.6,0.2L334.6,194.6z"/>
	<path d="M328.6,198.9L328.6,198.9l-1,2.1c0.4,0.8,0.8,1.5,1.2,2.3l1.7-2.5L328.6,198.9z"/>
	<path d="M330.9,193L330.9,193l2.4-1.1c-0.1-0.5-0.2-1-0.3-1.5L330.9,193L330.9,193L330.9,193z"/>
	<path d="M333.7,197.6l-0.5,3c0.2,0.1,0.4,0.3,0.5,0.4l0.7-3.2L333.7,197.6z"/>
	<polygon class="st6" points="327,160.3 327,160.4 327.1,160.4 	"/>
	<polygon class="st6" points="326.8,166.8 326.7,166.6 326.4,166.8 	"/>
	<path class="st6" d="M329,161.5l-0.2-0.1c0,0.1,0,0.1,0,0.2L329,161.5z"/>
	<path d="M325.5,158c0-0.1,0-0.1,0-0.2l-1.7-1l-0.1,0.1l0.6,1.8L325.5,158z"/>
	<polygon points="326.5,165 326.4,164.7 326.2,164.8 	"/>
	<path d="M317,170v-0.3c-0.3-0.2-0.7-0.4-1-0.6l-0.2,0.6L317,170z"/>
	<path d="M323.1,154.8l-1.6,0.7l1.7,1C323.1,155.9,323.1,155.3,323.1,154.8z"/>
	<polygon points="326.8,165.6 326.9,165.9 327.9,167 329.1,166.2 328.7,165.1 	"/>
	<path d="M317.3,160.1l-0.7,1.9l0.6,0.2c0.4-0.7,0.9-1.3,1.4-2L317.3,160.1z"/>
	<polygon points="320.5,160.7 321.6,161.8 321.8,161.7 321.5,160.1 	"/>
	<path d="M322.3,169l1.4-0.9h-1.5C322.3,168.4,322.3,168.7,322.3,169z"/>
	<path d="M321.7,164.3l-1.5,0.4c0,0.5,0.1,1.1,0.2,1.6h1.5l0.3-0.2l-0.2-1.5L321.7,164.3z"/>
	<polygon points="324.3,168.6 325.1,168.1 324.1,167 	"/>
	<path d="M317.8,164.9c0,0.3,0,0.6,0.1,0.9l0.6-0.3L317.8,164.9z"/>
	<path d="M314.8,159.5l-0.3-2.2l-1.4,0.6c0,0.5,0.1,1,0.1,1.5l0.6,0.6L314.8,159.5z"/>
</g>
</svg>
