<svg xmlns="https://www.w3.org/2000/svg" xmlns:xlink="https://www.w3.org/1999/xlink" width="136.607pt" height="45.683pt" viewBox="0 0 136.607 45.683">
    <defs>
        <symbol overflow="visible" id="a">
            <path d="M14.21875 0v-17.203125h-2.078125V-9.6875h-7.875v-7.515625H2.1875V0h2.078125v-8.171875h7.875V0zm0 0"/>
        </symbol>
        <symbol overflow="visible" id="b">
            <path d="M3.671875 0v-10.65625h-1.84375V0zM3.8125-13.984375V-16.0625H1.734375v2.078125zm0 0"/>
        </symbol>
        <symbol overflow="visible" id="c">
            <path d="M11.625-4.734375c0-.984375-.296875-2.25-1.34375-3.421875C9.265625-9.265625 8.375-9.515625 6.34375-10.0625c-1.171875-.296875-1.90625-.5-2.53125-1.265625-.421875-.546875-.640625-1.0625-.640625-1.734375 0-1.390625 1.1875-2.890625 3.375-2.890625 1.078125 0 2.5.21875 3.9375 1.5625l.34375-1.984375c-1.09375-.65625-2.28125-1.21875-4.28125-1.21875-3.203125 0-5.265625 2.359375-5.265625 4.75 0 .953125.28125 2.015625 1.25 3.109375C3.5-8.65625 4.578125-8.34375 5.96875-8c.578125.140625 1.546875.421875 1.71875.484375 1.375.546875 2.046875 1.8125 2.046875 3 0 1.5625-1.203125 3.234375-3.359375 3.234375-.75 0-2.9375-.125-4.984375-2.015625l-.34375 1.953125C3.078125.15625 5.28125.390625 6.390625.390625 9.4375.390625 11.625-2 11.625-4.734375zm0 0"/>
        </symbol>
        <symbol overflow="visible" id="d">
            <path d="M13.5625-12.1875c0-2.6875-2.34375-5.015625-5.5625-5.015625H2.203125V0H4.28125v-7.15625h3.875c2.96875 0 5.40625-2.3125 5.40625-5.03125zm-1.96875 0c0 1.6875-1.15625 3.59375-4.140625 3.59375h-3.21875v-7.21875h3.21875c2.875 0 4.140625 1.8125 4.140625 3.625zm0 0"/>
        </symbol>
        <symbol overflow="visible" id="e">
            <path d="M14.8125 0L8.796875-17.203125h-2.125L.640625 0H2.53125l1.734375-5h6.640625l1.75 5zm-4.375-6.390625H4.734375c1.1875-3.46875 2.671875-7.78125 2.84375-8.90625h.03125c.171875 1.015625.671875 2.515625 1.09375 3.78125zm0 0"/>
        </symbol>
        <symbol overflow="visible" id="f">
            <path d="M14.34375 0L9.765625-8.078125l.046875-.03125C13.671875-9.4375 13.703125-12.125 13.703125-12.59375c0-2.34375-2.375-4.609375-5.953125-4.609375H2.203125V0h2.03125v-7.859375H7.875L12.265625 0zM11.75-12.59375c0 1.34375-1 3.21875-4.265625 3.21875h-3.25v-6.4375h3.25c3.140625 0 4.265625 1.78125 4.265625 3.21875zm0 0"/>
        </symbol>
        <symbol overflow="visible" id="g">
            <path d="M13.5625-1.171875l-.15625-1.671875c-.671875.46875-1.3125.9375-2.109375 1.1875-.765625.25-1.5625.265625-2.34375.265625-1.515625 0-2.875-.859375-3.78125-2.078125C4.0625-4.9375 3.5625-6.71875 3.5625-8.5c0-1.8125.5-3.625 1.609375-5.0625.90625-1.1875 2.265625-2.078125 3.78125-2.078125.71875 0 1.40625.078125 2.078125.296875.6875.203125 1.3125.578125 1.921875.953125L13.3125-16.375c-.703125-.28125-1.421875-.5-2.15625-.65625-.71875-.140625-1.46875-.1875-2.203125-.1875-2.046875 0-3.921875.984375-5.265625 2.546875C2.234375-12.953125 1.515625-10.75 1.515625-8.5c0 2.234375.71875 4.4375 2.171875 6.140625 1.34375 1.5625 3.21875 2.5625 5.265625 2.5625.8125 0 1.625-.03125 2.421875-.25.796875-.25 1.484375-.671875 2.1875-1.125zm0 0"/>
        </symbol>
    </defs>
    <path d="M33.710938 37.699219c.410156-.632813-.28125-1.308594-1.546875-1.515625-1.26172-.207032-2.617188.140625-3.03125.773437-.410157.628907.28125 1.308594 1.546874 1.515625 1.26172.203125 2.621094-.140625 3.03125-.773437zm-10.375-1.6875l5.191406.84375" fill="none" stroke-width="1.2756" stroke-linecap="round" stroke="#000" stroke-miterlimit="10"/>
    <path d="M30.621094 32.945313c.410156-.632813-.28125-1.308594-1.542969-1.515626-1.265625-.20703-2.621094.140625-3.03125.773438-.410156.628906.28125 1.308594 1.542969 1.515625 1.261718.203125 2.621093-.140625 3.03125-.773437zm0 0" stroke-width="1.2756" stroke-linecap="round" stroke="#000" stroke-miterlimit="10"/>
    <path d="M23.335938 36.011719l3.20703-2.207032" fill="none" stroke-width="1.2756" stroke-linecap="round" stroke="#000" stroke-miterlimit="10"/>
    <path d="M17.535156 37.699219c.410157-.632813-.28125-1.308594-1.546875-1.515625-1.261719-.207032-2.617187.140625-3.03125.773437-.410156.628907.28125 1.308594 1.546875 1.515625 1.26172.203125 2.621094-.140625 3.03125-.773437zm0 0" stroke-width="1.2756" stroke-linecap="round" stroke="#000" stroke-miterlimit="10"/>
    <path d="M23.335938 36.011719l-5.1875.84375" fill="none" stroke-width="1.2756" stroke-linecap="round" stroke="#000" stroke-miterlimit="10"/>
    <path d="M25.621094 40.636719c.410156-.632813-.28125-1.308594-1.542969-1.515625-1.265625-.203125-2.621094.140625-3.03125.773437-.410156.632813.28125 1.308594 1.542969 1.515625 1.265625.203125 2.621094-.140625 3.03125-.773437zm0 0" stroke-width="1.2756" stroke-linecap="round" stroke="#000" stroke-miterlimit="10"/>
    <path d="M23.335938 36.011719v2.730468m-.695313.039063L5.36328 1.73047m21.683595 29.460936l-15.886719-17.03125m3.953125 21.644532L13.695312 19.59375m.621094 7.09375l-1.800781 3.863281m4.527344-3.773437l-.367188 4.238281m2.167969-.382813l3.480469 2.4375m-2.578125-9.703125l.957031 4.140626m1.621094-1.378907L26.39453 27.375M7.886719 7.136719v8.503906" fill="none" stroke-width="1.2756" stroke-linecap="round" stroke="#000" stroke-miterlimit="10"/>
    <use xlink:href="#a" x="39.745" y="42.047"/>
    <use xlink:href="#b" x="56.181326" y="42.047"/>
    <use xlink:href="#c" x="61.698934" y="42.047"/>
    <use xlink:href="#d" x="74.650194" y="42.047"/>
    <use xlink:href="#e" x="87.579146" y="42.047"/>
    <use xlink:href="#f" x="103.05869" y="42.047"/>
    <use xlink:href="#g" x="118.089587" y="42.047"/>
</svg>
